<svg id="ff6a3141-33d9-4a52-b389-763309bc15ad" data-name="圖層 1" xmlns="http://www.w3.org/2000/svg" viewBox="0 0 79.29 79.29"><defs><style>.efe3bb3f-a87b-46ad-889e-7ada6ca183de{fill:#ff6d72;}.\34 3fb6d3e-198f-4f4e-a8fa-d05f00d9260c{fill:#fff;}</style></defs><title>contact</title><circle class="efe3bb3f-a87b-46ad-889e-7ada6ca183de" cx="39.64" cy="39.64" r="39.64"/><path class="43fb6d3e-198f-4f4e-a8fa-d05f00d9260c" d="M59.49,34.39a.49.49,0,0,1,.78.38V51.25a3.87,3.87,0,0,1-3.87,3.87H22.88A3.87,3.87,0,0,1,19,51.25V34.78a.48.48,0,0,1,.78-.38c1.8,1.4,4.2,3.18,12.42,9.15,1.7,1.24,4.57,3.85,7.43,3.84s5.8-2.64,7.44-3.84C55.3,37.58,57.68,35.79,59.49,34.39ZM39.64,44.8c1.87,0,4.56-2.35,5.91-3.34,10.69-7.76,11.51-8.44,14-10.37a1.93,1.93,0,0,0,.74-1.52V28a3.87,3.87,0,0,0-3.87-3.87H22.88A3.87,3.87,0,0,0,19,28v1.53a1.94,1.94,0,0,0,.74,1.52C22.22,33,23,33.7,33.73,41.46c1.35,1,4,3.37,5.91,3.34Z"/></svg>