<svg id="11359419-555d-40fc-9800-841f78ca6940" data-name="圖層 1" xmlns="http://www.w3.org/2000/svg" viewBox="0 0 79.29 79.29"><defs><style>.\35 9b84e66-4a43-41fe-ba42-9b6f170aa806{fill:#ff6d72;}.\33 ccf9586-3b8c-48f7-bf82-ca130e77e09f{fill:#fff;}</style></defs><title>contact</title><circle class="59b84e66-4a43-41fe-ba42-9b6f170aa806" cx="39.64" cy="39.64" r="39.64"/><path class="3ccf9586-3b8c-48f7-bf82-ca130e77e09f" d="M56.66,23,49.2,21.32a1.73,1.73,0,0,0-2,1l-3.44,8a1.72,1.72,0,0,0,.49,2l4.35,3.56A26.58,26.58,0,0,1,35.92,48.62l-3.56-4.35a1.72,1.72,0,0,0-2-.49l-8,3.44a1.74,1.74,0,0,0-1,2L23,56.66A1.72,1.72,0,0,0,24.72,58,33.27,33.27,0,0,0,58,24.72,1.72,1.72,0,0,0,56.66,23Z"/></svg>