<svg id="d06124ae-ba4c-4f6d-816f-deb6ab732a79" data-name="圖層 1" xmlns="http://www.w3.org/2000/svg" viewBox="0 0 97.77 97.77"><defs><style>.a8d8b677-5a95-4e57-9e89-84f62c37af66{fill:#fff;}.\33 11a1997-912c-4531-93c2-e80768cc426f{fill:#19152c;}</style></defs><title>ft_social</title><circle class="a8d8b677-5a95-4e57-9e89-84f62c37af66" cx="48.88" cy="48.88" r="48.88"/><path class="311a1997-912c-4531-93c2-e80768cc426f" d="M29.93,40a1.87,1.87,0,0,0-.6-1.57L24.86,33v-.8H38.75L49.49,55.79l9.44-23.55H72.19V33l-3.82,3.67a1.12,1.12,0,0,0-.43,1.07v27a1.12,1.12,0,0,0,.43,1.07l3.74,3.67v.8H53.3v-.8l3.87-3.76c.38-.38.38-.5.38-1.07V42.86L46.78,70.2H45.32L32.8,42.86V61.19a2.5,2.5,0,0,0,.69,2.1l5,6.1v.8H24.26V69.4l5-6.11a2.41,2.41,0,0,0,.64-2.1Z"/></svg>