<svg id="b9da71b1-c3c1-45fa-bfec-9dcd6619db7f" data-name="圖層 1" xmlns="http://www.w3.org/2000/svg" viewBox="0 0 97.77 97.77"><defs><style>.\33 546ea4b-1651-4d8b-8aff-977bb8a4e6a5{fill:#fff;}.\39 7627126-9d80-47e4-8077-492cfa932571{fill:#19152c;}</style></defs><title>ft_social</title><circle class="3546ea4b-1651-4d8b-8aff-977bb8a4e6a5" cx="48.88" cy="48.88" r="48.88"/><path class="97627126-9d80-47e4-8077-492cfa932571" d="M67.73,39.22c0,.42,0,.84,0,1.26,0,12.86-9.78,27.67-27.67,27.67a27.48,27.48,0,0,1-14.93-4.37,20.12,20.12,0,0,0,2.35.12,19.47,19.47,0,0,0,12.07-4.15A9.74,9.74,0,0,1,30.49,53a12.26,12.26,0,0,0,1.84.15,10.28,10.28,0,0,0,2.56-.33,9.73,9.73,0,0,1-7.8-9.54v-.12a9.79,9.79,0,0,0,4.4,1.23,9.74,9.74,0,0,1-3-13A27.64,27.64,0,0,0,48.52,41.57a11,11,0,0,1-.24-2.23,9.73,9.73,0,0,1,16.83-6.65,19.15,19.15,0,0,0,6.17-2.35A9.7,9.7,0,0,1,67,35.7a19.49,19.49,0,0,0,5.6-1.51,20.9,20.9,0,0,1-4.88,5Z"/></svg>