<svg id="4fcf7283-ddb9-4361-a703-3c49814fa7bf" data-name="圖層 1" xmlns="http://www.w3.org/2000/svg" viewBox="0 0 97.77 97.77"><defs><style>.c4d7fc87-ca70-4d22-8563-e479692e39d3,.f232496c-ff83-44f7-bb5e-e76bcc962f69{fill:#fff;}.f232496c-ff83-44f7-bb5e-e76bcc962f69{opacity:0.5;}</style></defs><title>ft_social</title><circle class="f232496c-ff83-44f7-bb5e-e76bcc962f69" cx="48.88" cy="48.88" r="48.88"/><path class="c4d7fc87-ca70-4d22-8563-e479692e39d3" d="M43.54,47.09c3-1.45,4.62-3.65,4.62-7.07,0-6.74-5-8.38-10.82-8.38h-16V65.48h16.4c6.15,0,11.93-3,11.93-9.82,0-4.25-2-7.39-6.18-8.56ZM28.82,37.42h7c2.68,0,5.1.75,5.1,3.87,0,2.87-1.88,4-4.54,4H28.82Zm8,22.31h-8V50.42h8.11c3.27,0,5.35,1.37,5.35,4.83s-2.47,4.49-5.5,4.49ZM71,36.75H57.29V33.42H71v3.33Zm5.38,16.83c0-7.25-4.24-13.29-11.93-13.29-7.47,0-12.54,5.61-12.54,13,0,7.63,4.8,12.86,12.54,12.86,5.85,0,9.64-2.64,11.47-8.24H70c-.64,2.09-3.27,3.2-5.32,3.2-3.94,0-6-2.31-6-6.23H76.33C76.35,54.45,76.38,54,76.38,53.59Zm-17.72-3a5.26,5.26,0,0,1,5.59-5.23c3.38,0,5.08,2,5.37,5.23Z"/></svg>