<svg id="246133e5-b8e3-4d0f-a4bc-e144987b878d" data-name="圖層 1" xmlns="http://www.w3.org/2000/svg" viewBox="0 0 97.77 97.77"><defs><style>.d65eb7c3-fea0-4044-bf0b-0ee3632f6644{fill:#fff;}.ddcc79d5-b478-44cd-94b8-304239eda0c2{fill:#19152c;}</style></defs><title>ft_social</title><circle class="d65eb7c3-fea0-4044-bf0b-0ee3632f6644" cx="48.88" cy="48.88" r="48.88"/><path class="ddcc79d5-b478-44cd-94b8-304239eda0c2" d="M48.88,21.39a27.5,27.5,0,1,0,27.5,27.5A27.53,27.53,0,0,0,48.88,21.39ZM67.07,34.07a23.38,23.38,0,0,1,5.3,14.63A54.89,54.89,0,0,0,56,47.94C55.38,46.39,54.77,45,54,43.33c8.68-3.55,12.62-8.59,13.12-9.26Zm-2.61-2.72c-.42.6-4,5.35-12.31,8.48a125.37,125.37,0,0,0-8.76-13.75A23.43,23.43,0,0,1,64.45,31.35ZM38.9,27.67a149.87,149.87,0,0,1,8.71,13.58,87.61,87.61,0,0,1-21.71,2.86A23.57,23.57,0,0,1,38.9,27.67ZM25.4,48.92c0-.24,0-.48,0-.72a86.64,86.64,0,0,0,24.14-3.34c.67,1.32,1.31,2.65,1.9,4-8.49,2.39-16.21,9.26-20,15.78A23.39,23.39,0,0,1,25.4,48.92Zm9.07,18.53C36.92,62.43,43.58,56,53,52.73a97.63,97.63,0,0,1,5,17.81A23.44,23.44,0,0,1,34.47,67.45ZM62,68.39a101.37,101.37,0,0,0-4.56-16.75,34.47,34.47,0,0,1,14.63,1A23.53,23.53,0,0,1,62,68.39Z"/></svg>