<svg id="08ace292-1663-4665-aa55-f262251501d2" data-name="圖層 1" xmlns="http://www.w3.org/2000/svg" viewBox="0 0 97.77 97.77"><defs><style>.e24dda2d-e9a4-414c-8733-da1bdcff966c,.ff38b6ae-2b8f-4417-9d0e-736cd649d721{fill:#fff;}.ff38b6ae-2b8f-4417-9d0e-736cd649d721{opacity:0.5;}</style></defs><title>ft_social</title><circle class="ff38b6ae-2b8f-4417-9d0e-736cd649d721" cx="48.88" cy="48.88" r="48.88"/><path class="e24dda2d-e9a4-414c-8733-da1bdcff966c" d="M67.73,39.22c0,.42,0,.84,0,1.26,0,12.86-9.78,27.67-27.67,27.67a27.48,27.48,0,0,1-14.93-4.37,20.12,20.12,0,0,0,2.35.12,19.47,19.47,0,0,0,12.07-4.15A9.74,9.74,0,0,1,30.49,53a12.26,12.26,0,0,0,1.84.15,10.28,10.28,0,0,0,2.56-.33,9.73,9.73,0,0,1-7.8-9.54v-.12a9.79,9.79,0,0,0,4.4,1.23,9.74,9.74,0,0,1-3-13A27.64,27.64,0,0,0,48.52,41.57a11,11,0,0,1-.24-2.23,9.73,9.73,0,0,1,16.83-6.65,19.15,19.15,0,0,0,6.17-2.35A9.7,9.7,0,0,1,67,35.7a19.49,19.49,0,0,0,5.6-1.51,20.9,20.9,0,0,1-4.88,5Z"/></svg>