<svg id="9f69edda-9535-4c81-954f-53da768d67db" data-name="圖層 1" xmlns="http://www.w3.org/2000/svg" viewBox="0 0 97.77 97.77"><defs><style>.\31 76f2187-8e77-4942-be17-0a93611790a7,.\39 1502a05-3542-458a-8799-83a6022aac66{fill:#fff;}.\39 1502a05-3542-458a-8799-83a6022aac66{opacity:0.5;}</style></defs><title>ft_social</title><circle class="91502a05-3542-458a-8799-83a6022aac66" cx="48.88" cy="48.88" r="48.88"/><path class="176f2187-8e77-4942-be17-0a93611790a7" d="M29.93,40a1.87,1.87,0,0,0-.6-1.57L24.86,33v-.8H38.75L49.49,55.79l9.44-23.55H72.19V33l-3.82,3.67a1.12,1.12,0,0,0-.43,1.07v27a1.12,1.12,0,0,0,.43,1.07l3.74,3.67v.8H53.3v-.8l3.87-3.76c.38-.38.38-.5.38-1.07V42.86L46.78,70.2H45.32L32.8,42.86V61.19a2.5,2.5,0,0,0,.69,2.1l5,6.1v.8H24.26V69.4l5-6.11a2.41,2.41,0,0,0,.64-2.1Z"/></svg>