<svg xmlns="http://www.w3.org/2000/svg" viewBox="0 0 182 47"><defs><style>.\32 cb58ac5-98ec-46b5-9672-d228bd7e45df{fill:#fff;}</style></defs><title>logo_white</title><g id="8c2a168f-0863-4cd0-b3e1-21b0643c25e1" data-name="圖層 1"><path class="2cb58ac5-98ec-46b5-9672-d228bd7e45df" d="M180.5,1.5v44H1.5V1.5h179m1-1H.5v46h181V.5Z"/><path class="2cb58ac5-98ec-46b5-9672-d228bd7e45df" d="M63.48,28.72h5.83v3.35H59.11V14h4.37Z"/><path class="2cb58ac5-98ec-46b5-9672-d228bd7e45df" d="M84.56,14.9a8.66,8.66,0,0,1,3.29,3.3A9.47,9.47,0,0,1,89,23a9.46,9.46,0,0,1-1.21,4.78,8.74,8.74,0,0,1-3.3,3.31,9.55,9.55,0,0,1-9.23,0A8.73,8.73,0,0,1,72,27.75,9.45,9.45,0,0,1,70.79,23,9.38,9.38,0,0,1,72,18.2a8.76,8.76,0,0,1,3.3-3.3,9.6,9.6,0,0,1,9.26,0Zm-8.05,4.27A5.44,5.44,0,0,0,75.24,23a5.45,5.45,0,0,0,1.27,3.78,4.83,4.83,0,0,0,6.81,0A5.41,5.41,0,0,0,84.6,23a5.44,5.44,0,0,0-1.27-3.78,4.86,4.86,0,0,0-6.83,0Z"/><path class="2cb58ac5-98ec-46b5-9672-d228bd7e45df" d="M105.56,15.48A7.08,7.08,0,0,1,108.3,20h-4.63a3.57,3.57,0,0,0-1.41-1.55,4.3,4.3,0,0,0-2.28-.58,4.25,4.25,0,0,0-3.32,1.39A5.43,5.43,0,0,0,95.41,23a5.52,5.52,0,0,0,1.32,4,4.93,4.93,0,0,0,3.75,1.38,4.43,4.43,0,0,0,4.4-3.3H99.35V21.92h9.18v4.32a8.81,8.81,0,0,1-1.64,2.94,8.43,8.43,0,0,1-2.88,2.2,9.11,9.11,0,0,1-4,.84,9.5,9.5,0,0,1-4.78-1.16,8,8,0,0,1-3.16-3.26A10,10,0,0,1,91,23a10,10,0,0,1,1.11-4.78A8,8,0,0,1,95.22,15,9.38,9.38,0,0,1,100,13.81,9,9,0,0,1,105.56,15.48Z"/><path class="2cb58ac5-98ec-46b5-9672-d228bd7e45df" d="M124.22,14.9a8.67,8.67,0,0,1,3.29,3.3A9.47,9.47,0,0,1,128.7,23a9.45,9.45,0,0,1-1.21,4.78,8.72,8.72,0,0,1-3.3,3.31,9.55,9.55,0,0,1-9.23,0,8.72,8.72,0,0,1-3.3-3.31A9.45,9.45,0,0,1,110.45,23a9.38,9.38,0,0,1,1.21-4.77,8.75,8.75,0,0,1,3.3-3.3,9.6,9.6,0,0,1,9.25,0Zm-8.05,4.27A5.44,5.44,0,0,0,114.9,23a5.45,5.45,0,0,0,1.27,3.78,4.83,4.83,0,0,0,6.81,0A5.41,5.41,0,0,0,124.25,23,5.44,5.44,0,0,0,123,19.18a4.86,4.86,0,0,0-6.83,0Z"/></g></svg>